<svg width="550" height="550" xmlns="http://www.w3.org/2000/svg">
 <g>
  <title>background</title>
  <rect x="-1" y="-1" width="552" height="552" id="canvas_background" fill="none"/>
 </g>

 <g>
  <title>Layer 1</title>
  <g stroke="null" fill="#61DAFB" id="svg_1">
   <path stroke="null" d="m533.299986,275.052648c0,-34.222379 -42.856949,-66.654664 -108.563916,-86.766893c15.163146,-66.970563 8.42397,-120.252175 -21.270525,-137.310715c-6.844476,-4.001386 -14.847248,-5.896779 -23.587117,-5.896779l0,23.481817c4.843783,0 8.739869,0.947697 12.004158,2.73779c14.320749,8.213371 20.533427,39.48736 15.689645,79.711818c-1.158296,9.898165 -3.053689,20.322828 -5.370281,30.958091c-20.638727,-5.054382 -43.172847,-8.950468 -66.865264,-11.477659c-14.21545,-19.480431 -28.957398,-37.170769 -43.804645,-52.649814c34.327679,-31.905787 66.549365,-49.385525 88.451687,-49.385525l0,-23.481817c-28.957398,0 -66.865264,20.638727 -105.194328,56.4406c-38.329065,-35.591274 -76.236931,-56.019402 -105.194328,-56.019402l0,23.481817c21.797023,0 54.124009,17.374439 88.451687,49.069627c-14.741948,15.479045 -29.483896,33.064083 -43.488746,52.544514c-23.797716,2.527191 -46.331836,6.423277 -66.970563,11.582959c-2.421891,-10.529963 -4.211985,-20.744027 -5.475581,-30.536892c-4.949083,-40.224458 1.158296,-71.498447 15.373746,-79.817118c3.158989,-1.895393 7.265674,-2.73779 12.109457,-2.73779l0,-23.481817c-8.845169,0 -16.84794,1.895393 -23.797716,5.896779c-29.589195,17.05854 -36.223072,70.234852 -20.954626,136.994816c-65.496368,20.217529 -108.142718,52.544514 -108.142718,86.661594c0,34.222379 42.856949,66.654664 108.563916,86.766893c-15.163146,66.970563 -8.42397,120.252175 21.270525,137.310715c6.844476,4.001386 14.847248,5.896779 23.692416,5.896779c28.957398,0 66.865264,-20.638727 105.194328,-56.4406c38.329065,35.591274 76.236931,56.019402 105.194328,56.019402c8.845169,0 16.84794,-1.895393 23.797716,-5.896779c29.589195,-17.05854 36.223072,-70.234852 20.954626,-136.994816c65.285769,-20.112229 107.932118,-52.544514 107.932118,-86.661594zm-137.100115,-70.234852c-3.896086,13.583652 -8.739869,27.588502 -14.21545,41.593353c-4.317285,-8.42397 -8.845169,-16.84794 -13.794251,-25.271911c-4.843783,-8.42397 -10.003465,-16.637341 -15.163146,-24.640113c14.952547,2.211292 29.378596,4.949083 43.172847,8.318671zm-48.22723,112.144104c-8.213371,14.21545 -16.637341,27.693802 -25.37721,40.224458c-15.689645,1.368895 -31.589888,2.105993 -47.595432,2.105993c-15.900244,0 -31.800488,-0.737097 -47.384833,-2.000693c-8.739869,-12.530656 -17.269139,-25.903708 -25.48251,-40.013859c-8.002772,-13.794251 -15.268446,-27.799102 -21.902323,-41.909252c6.528577,-14.11015 13.899551,-28.2203 21.797023,-42.014551c8.213371,-14.21545 16.637341,-27.693802 25.37721,-40.224458c15.689645,-1.368895 31.589888,-2.105993 47.595432,-2.105993c15.900244,0 31.800488,0.737097 47.384833,2.000693c8.739869,12.530656 17.269139,25.903708 25.48251,40.013859c8.002772,13.794251 15.268446,27.799102 21.902323,41.909252c-6.633877,14.11015 -13.899551,28.2203 -21.797023,42.014551zm34.01178,-13.688952c5.68618,14.11015 10.529963,28.2203 14.531349,41.909252c-13.794251,3.369588 -28.3256,6.212678 -43.383447,8.42397c5.159682,-8.108071 10.319364,-16.426742 15.163146,-24.956012c4.843783,-8.42397 9.371667,-16.95324 13.688952,-25.37721zm-106.773823,112.354703c-9.792865,-10.108764 -19.585731,-21.375824 -29.273297,-33.695881c9.476967,0.421199 19.164532,0.737097 28.957398,0.737097c9.898165,0 19.69103,-0.210599 29.273297,-0.737097c-9.476967,12.320056 -19.269832,23.587117 -28.957398,33.695881zm-78.342923,-62.021481c-14.952547,-2.211292 -29.378596,-4.949083 -43.172847,-8.318671c3.896086,-13.583652 8.739869,-27.588502 14.21545,-41.593353c4.317285,8.42397 8.845169,16.84794 13.794251,25.271911c4.949083,8.42397 10.003465,16.637341 15.163146,24.640113zm77.816425,-219.128525c9.792865,10.108764 19.585731,21.375824 29.273297,33.695881c-9.476967,-0.421199 -19.164532,-0.737097 -28.957398,-0.737097c-9.898165,0 -19.69103,0.210599 -29.273297,0.737097c9.476967,-12.320056 19.269832,-23.587117 28.957398,-33.695881zm-77.921725,62.021481c-5.159682,8.108071 -10.319364,16.426742 -15.163146,24.956012c-4.843783,8.42397 -9.371667,16.84794 -13.688952,25.271911c-5.68618,-14.11015 -10.529963,-28.2203 -14.531349,-41.909252c13.794251,-3.264288 28.3256,-6.107378 43.383447,-8.318671zm-95.296163,131.835134c-37.276068,-15.900244 -61.389683,-36.74957 -61.389683,-53.281612c0,-16.532042 24.113615,-37.486667 61.389683,-53.281612c9.055768,-3.896086 18.953933,-7.370974 29.167997,-10.635262c6.002079,20.638727 13.899551,42.119851 23.692416,64.127473c-9.687566,21.902323 -17.479738,43.278147 -23.376517,63.811574c-10.424663,-3.264288 -20.322828,-6.844476 -29.483896,-10.740562zm56.6512,150.473168c-14.320749,-8.213371 -20.533427,-39.48736 -15.689645,-79.711818c1.158296,-9.898165 3.053689,-20.322828 5.370281,-30.958091c20.638727,5.054382 43.172847,8.950468 66.865264,11.477659c14.21545,19.480431 28.957398,37.170769 43.804645,52.649814c-34.327679,31.905787 -66.549365,49.385525 -88.451687,49.385525c-4.738483,-0.1053 -8.739869,-1.052996 -11.898858,-2.84309zm249.770717,-80.238316c4.949083,40.224458 -1.158296,71.498447 -15.373746,79.817118c-3.158989,1.895393 -7.265674,2.73779 -12.109457,2.73779c-21.797023,0 -54.124009,-17.374439 -88.451687,-49.069627c14.741948,-15.479045 29.483896,-33.064083 43.488746,-52.544514c23.797716,-2.527191 46.331836,-6.423277 66.970563,-11.582959c2.421891,10.635262 4.317285,20.849326 5.475581,30.642192zm40.540357,-70.234852c-9.055768,3.896086 -18.953933,7.370974 -29.167997,10.635262c-6.002079,-20.638727 -13.899551,-42.119851 -23.692416,-64.127473c9.687566,-21.902323 17.479738,-43.278147 23.376517,-63.811574c10.424663,3.264288 20.322828,6.844476 29.589195,10.740562c37.276068,15.900244 61.389683,36.74957 61.389683,53.281612c-0.1053,16.532042 -24.218914,37.486667 -61.494983,53.281612zm-278.938714,-282.9401z" id="svg_2" stroke-width="0"/>
   <circle stroke="null" cx="274.8947" cy="275.052648" r="48.121925" id="svg_3" stroke-width="0"/>
   <path stroke="null" d="m379.773129,45.078261z" id="svg_4" stroke-width="0"/>
  </g>
 </g>
</svg>